<?xml version="1.0" encoding="UTF-8"?>
<svg width="394px" height="185px" viewBox="0 0 394 185" version="1.1" xmlns="http://www.w3.org/2000/svg" xmlns:xlink="http://www.w3.org/1999/xlink">
    <!-- Generator: Sketch 64 (93537) - https://sketch.com -->
    <title>Group</title>
    <desc>Created with Sketch.</desc>
    <g id="Page-1" stroke="none" stroke-width="1" fill="none" fill-rule="evenodd">
        <g id="LYSER_LOGO" transform="translate(-616.000000, -770.000000)">
            <g id="Group-85" transform="translate(0.000000, 19.000000)">
                <g id="Group" transform="translate(616.000000, 751.000000)">
                    <path d="M65.7518179,112.2061 L34.4128179,112.1941 L50.8078179,4.7371 L50.8258179,4.5501 C50.9128179,2.3271 49.4908179,0.8321 47.1128179,0.6451 L29.5258179,0.5631 C28.7188179,0.5891 27.5548179,0.7171 26.7498179,1.5321 C26.2468179,2.0551 25.9018179,2.8001 25.6958179,3.8091 L5.74881789,134.1061 L5.72981789,134.2931 C5.67881789,135.5891 6.19581789,136.3771 6.63881789,136.8111 C7.23681789,137.3951 8.06181789,137.7131 9.15281789,137.7551 L62.4928179,137.9491 C64.6388179,137.9421 66.1308179,136.5711 66.4828179,134.3001 L69.4358179,116.4931 L69.4578179,116.2841 C69.5498179,113.9571 68.1298179,112.3931 65.7518179,112.2061" id="Fill-29" fill="#4588FF"></path>
                    <path d="M164.160518,2.334 C163.463518,1.652 162.565518,1.251 161.491518,1.138 L161.392518,1.129 L143.421518,1.363 C142.457518,1.4 140.696518,1.841 139.716518,4.376 L123.142518,46.876 L115.361518,3.163 L115.358518,3.144 C115.004518,1.284 113.636518,0.14 111.606518,0.004 L111.535518,0 L93.8315179,0.328 C90.3165179,0.518 89.8955179,2.473 89.8785179,3.305 L89.8735179,3.503 L105.951518,77.819 L98.3025179,134.827 L98.2875179,135.016 C98.2545179,136.621 99.1605179,138.357 101.857518,138.413 L119.703518,138.18 C121.839518,138.132 123.304518,136.806 123.624518,134.611 L131.468518,76.795 L165.281518,5.24 L165.289233,4.883 C165.302518,4.232 165.117518,3.262 164.160518,2.334" id="Fill-31" fill="#FCB8A5"></path>
                    <path d="M153.609218,183.5342 C151.693218,183.5342 150.738218,182.6162 150.738218,180.7792 L153.609218,156.7792 C153.914218,155.0962 154.908218,154.1782 156.594218,154.0232 C168.537218,152.8002 176.421218,150.9052 180.250218,148.3392 C184.075218,145.7742 185.990218,140.6662 185.990218,133.0092 C185.990218,125.3542 184.039218,115.3832 180.134218,103.0962 C176.231218,90.8092 173.704218,82.6382 172.556218,78.5802 C168.881218,65.5662 167.044218,54.9072 167.044218,46.5992 C167.044218,38.2942 168.382218,31.1942 171.063218,25.2982 C173.740218,19.4042 177.568218,14.6962 182.546218,11.1752 C192.192218,4.4392 205.168218,1.0692 221.473218,1.0692 C223.540218,1.0692 224.573218,2.0272 224.573218,3.9402 L221.473218,27.7102 C221.165218,29.6242 220.210218,30.6582 218.603218,30.8102 C203.750218,31.8062 196.326218,36.2072 196.326218,44.0152 C196.326218,51.2132 199.482218,65.3562 205.801218,86.4452 C212.113218,107.5372 215.273218,122.6382 215.273218,131.7452 C215.273218,166.2722 194.718218,183.5342 153.609218,183.5342" id="Fill-33" fill="#4588FF"></path>
                    <path d="M297.914418,46.2725 L297.785418,46.2525 L250.215418,46.2235 L250.121418,46.2265 C248.103418,46.3395 246.697418,47.5115 246.258418,49.4405 L246.245418,49.5015 L226.663418,179.8535 L226.645418,180.0435 C226.598418,181.3575 227.145418,182.1505 227.612418,182.5845 C228.223418,183.1495 229.062418,183.4555 230.163418,183.4935 L283.398418,183.6395 L283.544418,183.6395 L283.686418,183.6155 C285.789418,183.2545 287.142418,181.9405 287.389418,180.0595 L290.268418,162.2415 L290.288418,162.0325 C290.371418,159.7035 288.945418,158.1455 286.565418,157.9695 L255.238418,157.9235 L260.047418,125.9695 L285.532418,125.8855 L285.619418,125.8815 C287.646418,125.7715 289.060418,124.5275 289.494418,122.4715 L292.379418,104.8355 L292.399418,104.6245 C292.483418,102.2945 291.057418,100.7385 288.678418,100.5625 L288.615418,100.5575 L263.843418,100.5685 L268.184418,71.9075 L294.598418,72.0995 L294.696418,72.0975 C296.830418,71.9885 298.253418,70.6485 298.601418,68.4245 L301.393418,50.6035 L301.411418,50.4035 C301.491418,48.1705 300.183418,46.6265 297.914418,46.2725" id="Fill-35" fill="#FCB8A5"></path>
                    <path d="M362.985718,80.6416 C362.937718,85.4826 361.829718,90.3236 359.696718,95.0226 C356.075718,102.9236 349.924718,107.2476 340.932718,108.1986 L345.808718,68.5796 C347.325718,68.4396 349.567718,68.3846 352.505718,68.4146 C356.011718,68.4506 358.678718,69.3506 360.433718,71.0916 C362.174718,72.8206 363.033718,76.0336 362.985718,80.6416 M375.444718,112.9136 C380.023718,107.9556 383.376718,102.2636 385.406718,95.9956 C387.415718,89.7966 388.475718,82.5516 388.559718,74.4586 C388.644718,66.0726 385.942718,59.0766 380.524718,53.6636 C375.115718,48.2686 367.339718,45.4806 357.414718,45.3776 C347.903718,45.2826 340.170718,45.4516 334.423718,45.8846 C325.274718,46.5756 324.770718,47.0346 324.237718,47.5186 C323.511718,48.1766 323.073718,49.2086 322.899718,50.6646 L306.596718,180.7116 L306.584522,180.9026 C306.576718,181.6066 306.798718,183.9326 309.980718,184.2546 L310.085718,184.2656 L328.296718,183.8426 C330.374718,183.7716 331.792718,182.4276 332.089718,180.2286 L337.876718,133.0936 L356.608718,182.0256 C357.449718,184.2546 359.054718,184.7026 359.937718,184.7716 L360.023718,184.7786 L379.522718,184.2846 L379.597718,184.2846 C382.500718,184.2846 383.555718,182.5486 383.573718,180.9146 C383.579718,180.3246 383.446718,179.7376 383.176718,179.1686 L359.885718,123.3896 C365.993718,121.0046 371.220718,117.4866 375.444718,112.9136" id="Fill-37" fill="#4588FF"></path>
                    <path d="M387.666418,29.9727 L251.490418,29.9727 C250.753418,29.9727 250.195418,29.2927 250.323418,28.5527 L254.920418,1.9257 C255.020418,1.3477 255.512418,0.9247 256.087418,0.9247 L392.263418,0.9247 C392.999418,0.9247 393.558418,1.6057 393.430418,2.3457 L388.833418,28.9727 C388.732418,29.5507 388.241418,29.9727 387.666418,29.9727" id="Fill-39" fill="#00FFF2"></path>
                    <path d="M119.470618,183.5342 L1.03161789,183.5342 C0.39061789,183.5342 -0.0943821097,182.8552 0.0156178903,182.1132 L4.01461789,155.4872 C4.10061789,154.9082 4.52961789,154.4872 5.02961789,154.4872 L123.469618,154.4872 C124.110618,154.4872 124.595618,155.1662 124.483618,155.9082 L120.485618,182.5342 C120.398618,183.1132 119.970618,183.5342 119.470618,183.5342" id="Fill-41" fill="#00FFF2"></path>
                </g>
            </g>
        </g>
    </g>
</svg>