<svg height="185" viewBox="0 0 394 185" width="394" xmlns="http://www.w3.org/2000/svg"><g fill="none" fill-rule="evenodd"><path d="m65.7518179 112.2061-31.339-.012 16.395-107.457.018-.187c.087-2.223-1.335-3.718-3.713-3.905l-17.587-.082c-.807.026-1.971.154-2.776.969-.503.523-.848 1.268-1.054 2.277l-19.94700001 130.297-.019.187c-.051 1.296.466 2.084.909 2.518.598.584 1.423.902 2.514.944l53.34000001.194c2.146-.007 3.638-1.378 3.99-3.649l2.953-17.807.022-.209c.092-2.327-1.328-3.891-3.706-4.078" fill="#4588ff"/><path d="m164.160518 2.334c-.697-.682-1.595-1.083-2.669-1.196l-.099-.009-17.971.234c-.964.037-2.725.478-3.705 3.013l-16.574 42.5-7.781-43.713-.003-.019c-.354-1.86-1.722-3.004-3.752-3.14l-.071-.004-17.7040001.328c-3.515.19-3.936 2.145-3.953 2.977l-.005.198 16.0780001 74.316-7.6490001 57.008-.015.189c-.033 1.605.873 3.341 3.5700001 3.397l17.846-.233c2.136-.048 3.601-1.374 3.921-3.569l7.844-57.816 33.813-71.555.007715-.357c.013285-.651-.171715-1.621-1.128715-2.549" fill="#fcb8a5"/><path d="m153.609218 183.5342c-1.916 0-2.871-.918-2.871-2.755l2.871-24c.305-1.683 1.299-2.601 2.985-2.756 11.943-1.223 19.827-3.118 23.656-5.684 3.825-2.565 5.74-7.673 5.74-15.33 0-7.655-1.951-17.626-5.856-29.913-3.903-12.287-6.43-20.458-7.578-24.516-3.675-13.014-5.512-23.673-5.512-31.981 0-8.305 1.338-15.405 4.019-21.301 2.677-5.894 6.505-10.602 11.483-14.123 9.646-6.736 22.622-10.106 38.927-10.106 2.067 0 3.1.958 3.1 2.871l-3.1 23.77c-.308 1.914-1.263 2.948-2.87 3.1-14.853.996-22.277 5.397-22.277 13.205 0 7.198 3.156 21.341 9.475 42.43 6.312 21.092 9.472 36.193 9.472 45.3 0 34.527-20.555 51.789-61.664 51.789" fill="#4588ff"/><path d="m297.914418 46.2725-.129-.02-47.57-.029-.094.003c-2.018.113-3.424 1.285-3.863 3.214l-.013.061-19.582 130.352-.018.19c-.047 1.314.5 2.107.967 2.541.611.565 1.45.871 2.551.909l53.235.146h.146l.142-.024c2.103-.361 3.456-1.675 3.703-3.556l2.879-17.818.02-.209c.083-2.329-1.343-3.887-3.723-4.063l-31.327-.046 4.809-31.954 25.485-.084.087-.004c2.027-.11 3.441-1.354 3.875-3.41l2.885-17.636.02-.211c.084-2.33-1.342-3.886-3.721-4.062l-.063-.005-24.772.011 4.341-28.661 26.414.192.098-.002c2.134-.109 3.557-1.449 3.905-3.673l2.792-17.821.018-.2c.08-2.233-1.228-3.777-3.497-4.131" fill="#fcb8a5"/><path d="m362.985718 80.6416c-.048 4.841-1.156 9.682-3.289 14.381-3.621 7.901-9.772 12.225-18.764 13.176l4.876-39.619c1.517-.14 3.759-.195 6.697-.165 3.506.036 6.173.936 7.928 2.677 1.741 1.729 2.6 4.942 2.552 9.55m12.459 32.272c4.579-4.958 7.932-10.65 9.962-16.918 2.009-6.199 3.069-13.444 3.153-21.537.085-8.386-2.617-15.382-8.035-20.795-5.409-5.395-13.185-8.183-23.11-8.286-9.511-.095-17.244.074-22.991.507-9.149.691-9.653 1.15-10.186 1.634-.726.658-1.164 1.69-1.338 3.146l-16.303 130.047-.012196.191c-.007804.704.214196 3.03 3.396196 3.352l.105.011 18.211-.423c2.078-.071 3.496-1.415 3.793-3.614l5.787-47.135 18.732 48.932c.841 2.229 2.446 2.677 3.329 2.746l.086.007 19.499-.494h.075c2.903 0 3.958-1.736 3.976-3.37.006-.59-.127-1.177-.397-1.746l-23.291-55.779c6.108-2.385 11.335-5.903 15.559-10.476" fill="#4588ff"/><g fill="#00fff2"><path d="m387.666418 29.9727h-136.176c-.737 0-1.295-.68-1.167-1.42l4.597-26.627c.1-.578.592-1.001 1.167-1.001h136.176c.736 0 1.295.681 1.167 1.421l-4.597 26.627c-.101.578-.592 1-1.167 1"/><path d="m119.470618 183.5342h-118.43900011c-.641 0-1.126-.679-1.016-1.421l3.999-26.626c.086-.579.515-1 1.015-1h118.44000011c.641 0 1.126.679 1.014 1.421l-3.998 26.626c-.087.579-.515 1-1.015 1"/></g></g></svg>