<svg height="300" width="300" xmlns="http://www.w3.org/2000/svg"><svg fill="#ffffff" transform="matrix(.85 0 0 .85 23.902712 22.50095)" viewBox="0 0 100 100" xmlns:xlink="http://www.w3.org/1999/xlink"><path d="m23.588 29.899 1.027 17.718 9.936 5.38-.195-17.93 37.659-16.909-10.157-3.141z"/><path d="m49.45 93.039c-.419 0-.837-.102-1.217-.307l-37.009-19.779c-.786-.419-1.297-1.21-1.36-2.097l-3.445-48.236c-.085-1.189.655-2.283 1.792-2.647l40.454-12.889c.512-.165 1.059-.165 1.568 0l40.455 12.888c1.139.364 1.88 1.458 1.794 2.647l-3.445 48.237c-.062.887-.574 1.678-1.36 2.097l-37.01 19.779c-.38.206-.801.307-1.217.307zm-34.533-23.973 34.533 18.457 34.531-18.457 3.2-44.786-37.731-12.022-37.732 12.022z"/><path d="m49.45 44.801c-.388 0-.778-.087-1.133-.262l-40.455-19.782c-1.282-.626-1.815-2.175-1.188-3.457.627-1.278 2.176-1.813 3.456-1.186l39.32 19.226 39.321-19.226c1.279-.635 2.828-.096 3.455 1.186s.093 2.831-1.188 3.457l-40.454 19.783c-.356.174-.746.261-1.134.261z"/><path d="m49.45 93.039c-1.428 0-2.584-1.16-2.584-2.584v-48.238c0-1.427 1.157-2.584 2.584-2.584s2.584 1.157 2.584 2.584v48.238c0 1.424-1.156 2.584-2.584 2.584z"/></svg></svg>