<svg height="265" viewBox="0 0 278 265" width="278" xmlns="http://www.w3.org/2000/svg"><g fill="#fff"><path d="m66.354.276c-38.824.394-59.688 59.013-30.413 84.473-16.758 10.403-30.975 26.526-34.018 46.529-5.954 29.369 5.887 62.719 32.781 77.671 33.89 18.694 68.177 36.659 102.269 54.951v-219.858-.136-12.576-5.649-25.422h-70.618v.017zm41.27 208.471c-18.933-8.329-38.099-16.357-56.129-26.392-11.289-6.747-17.844-19.256-19.175-32.199-.089-.863-.154-1.728-.196-2.593-.045-.923-.063-1.846-.055-2.768.134-14.747 7.116-29.106 21.667-35.227 17.762-2.241 35.925-.033 53.854-.602 0 16.625-.008 33.249-.008 49.878.001 16.629.009 33.262.042 49.903zm-.311-177.416v31.634 10.737 2.476c-13.863-.752-28.178 1.893-41.735-1.43-17.722-8.42-14.388-35.873 2.469-43.417z"/><path d="m242.411 84.648c30.153-25.941 7.253-87.06-33.409-84.297v-.092h-38.133-28.247-1.412v43.647 12.847 207.255c31.314-16.593 62.428-33.484 93.743-50.077 9.968-5.252 19.635-11.54 26.86-20.371 16.29-19.301 19.535-47.265 12.477-70.981-5.019-16.422-17.897-28.765-31.879-37.931zm-71.542-53.317h35.438s14.165.575 18.163 20.675c.983 9.069-2.546 18.393-11.628 22.742-13.657 3.339-28.047.646-41.973 1.435zm56.055 150.991c-17.829 10.403-37.431 17.294-55.661 26.961-.427-12.531-.557-25.067-.568-37.606-.016-16.718.178-33.442.16-50.167-.005-4.181-.022-8.362-.06-12.544 17.896.535 36.059-1.639 53.854.602 14.551 6.105 21.533 20.455 21.671 35.198.139 14.743-6.568 29.879-19.396 37.556z"/></g></svg>