<?xml version="1.0" encoding="UTF-8"?>
<svg width="226px" height="198px" viewBox="0 0 226 198" version="1.1" xmlns="http://www.w3.org/2000/svg" xmlns:xlink="http://www.w3.org/1999/xlink">
    <title>Group</title>
    <g id="badges" stroke="none" stroke-width="1" fill="none" fill-rule="evenodd">
        <g id="Group" fill="#FFFFFF" fill-rule="nonzero">
            <path d="M0.58988764,0.309859155 L41.4773219,0.309859155 C80.9782063,0.309859155 113,43.131363 113,95.9543649 L113,109.583099 L72.1125657,109.583099 C32.6116813,109.583099 0.58988764,66.7615948 0.58988764,13.9385928 L0.58988764,0.309859155 Z" id="Path"></path>
            <path d="M184.522678,20.2732394 L225.410112,20.2732394 L225.410112,33.9019731 C225.410112,59.2684732 217.874709,83.5960275 204.461605,101.532852 C191.048501,119.469676 172.856428,129.546479 153.887434,129.546479 L113,129.546479 L113,115.917745 C113,63.0947433 145.021794,20.2732394 184.522678,20.2732394 Z" id="Path" transform="translate(169.205056, 74.909859) rotate(180.000000) translate(-169.205056, -74.909859) "></path>
            <path d="M112.893071,109.583099 L72.0445308,109.583099 C32.5812211,109.583099 0.58988764,66.7920917 0.58988764,14.0067096 C0.58988764,-1.55789318 0.58988764,0.387682169 1.01413064,0.387682169 C5.08689969,48.7392925 35.6672805,85.2804351 72.0445308,85.2634067 L112.408222,85.2634067 C112.970194,93.3468327 113.132163,101.4711 112.893071,109.583099 Z" id="Path"></path>
            <path d="M225.387464,33.9770694 C225.387464,59.3236527 217.859212,83.632106 204.458839,101.554847 C191.058466,119.477588 172.88366,129.546479 153.932671,129.546479 L113.084044,129.546479 C112.890162,121.436245 113.031793,113.317876 113.508288,105.228563 L153.932671,105.228563 C190.297384,105.241222 220.858661,68.6944672 224.902613,20.3590365 C225.569282,20.3590365 225.387464,18.3325435 225.387464,33.9770694 Z" id="Path"></path>
            <path d="M180.586472,71.9631473 C151.472796,71.9631473 124.739482,124.698493 119.551511,134.9027 L119.551511,189.678887 C119.551511,194.18739 116.818882,197.842254 113.448015,197.842254 C110.077147,197.842254 107.344519,194.18739 107.344519,189.678887 C107.344519,132.045522 109.846952,116.698394 98.1282394,97.1063151 C87.9964358,80.0448798 67.6107588,51.3098309 46.6147321,51.3098309 C43.2438642,51.3098309 40.511236,47.6549674 40.511236,43.1464648 C40.511236,38.6379621 43.2438642,34.9830986 46.6147321,34.9830986 C75.118059,34.9830986 109.663847,78.9836422 117.110112,111.147305 C129.317105,89.5960182 153.059705,55.636415 180.281297,55.636415 C183.652165,55.5237025 186.453109,59.0871944 186.537381,63.595697 C186.621652,68.1041996 183.95734,71.8504346 180.586472,71.9631473 Z" id="Path"></path>
        </g>
    </g>
</svg>