<svg data-v-1084b650="" xmlns="http://www.w3.org/2000/svg" viewBox="0 0 300 300"> <g data-v-1084b650="" id="29c8b4c6-8a9b-e432-b551-a921d13a7fbb" fill="#ffffff" stroke="none" transform="matrix(0.800000011920929,0,0,0.800000011920929,30.00078010559082,30.00023078918457)"><svg xmlns="http://www.w3.org/2000/svg" xmlns:xlink="http://www.w3.org/1999/xlink" version="1.1" x="0px" y="0px" viewBox="0 0 512 512" enable-background="new 0 0 512 512" xml:space="preserve"><path d="M236.129,356.898c1.317,0,2.655-0.262,3.942-0.814c5.074-2.18,7.421-8.061,5.241-13.135  c-8.022-18.676-22.954-28.181-23.586-28.576c-3.238-2.027-7.347-2.031-10.591-0.014c-0.632,0.395-15.589,9.857-23.777,28.316  c-2.239,5.048,0.038,10.956,5.086,13.195s10.956-0.037,13.196-5.086c2.99-6.74,7.335-11.807,10.753-15.076  c3.363,3.266,7.622,8.334,10.542,15.133C228.563,354.631,232.252,356.898,236.129,356.898z"></path><path d="M304.718,314.373c-3.236-2.027-7.348-2.032-10.59-0.014c-0.633,0.395-15.59,9.857-23.777,28.316  c-2.24,5.048,0.037,10.956,5.086,13.195c5.049,2.238,10.956-0.038,13.195-5.086c2.99-6.74,7.336-11.807,10.754-15.076  c3.363,3.266,7.622,8.334,10.542,15.133c1.627,3.789,5.316,6.057,9.193,6.057c1.316,0,2.655-0.262,3.941-0.814  c5.075-2.18,7.422-8.061,5.242-13.135C320.282,324.273,305.35,314.769,304.718,314.373z"></path><path d="M192.445,213.571c5.048,2.239,10.956-0.037,13.196-5.086c2.99-6.74,7.335-11.806,10.753-15.075  c3.363,3.266,7.622,8.333,10.542,15.133c1.627,3.788,5.316,6.056,9.193,6.056c1.317,0,2.655-0.262,3.942-0.814  c5.074-2.18,7.421-8.06,5.241-13.135c-8.022-18.676-22.954-28.18-23.586-28.576c-3.238-2.027-7.347-2.032-10.591-0.014  c-0.632,0.394-15.589,9.857-23.777,28.316C185.119,205.423,187.396,211.332,192.445,213.571z"></path><path d="M275.437,213.571c5.049,2.238,10.956-0.039,13.195-5.086c2.99-6.74,7.336-11.806,10.754-15.075  c3.363,3.265,7.622,8.333,10.542,15.133c1.627,3.788,5.316,6.056,9.193,6.056c1.316,0,2.655-0.262,3.941-0.814  c5.075-2.18,7.422-8.06,5.242-13.135c-8.022-18.676-22.955-28.18-23.587-28.576c-3.236-2.027-7.348-2.032-10.59-0.014  c-0.633,0.394-15.59,9.857-23.777,28.316C268.11,205.423,270.388,211.332,275.437,213.571z"></path><path d="M201.314,256.447c2.18-5.075-0.167-10.956-5.241-13.135c-5.078-2.183-10.956,0.167-13.135,5.241  c-2.909,6.772-7.179,11.847-10.55,15.123c-3.423-3.273-7.76-8.335-10.746-15.065c-2.24-5.048-8.148-7.326-13.196-5.086  c-5.048,2.239-7.326,8.147-5.086,13.196c8.188,18.458,23.145,27.922,23.777,28.315c1.618,1.007,3.451,1.511,5.285,1.511  c1.841,0,3.684-0.509,5.306-1.524C178.36,284.627,193.292,275.123,201.314,256.447z"></path><path d="M231.439,243.524c-5.048,2.239-7.326,8.147-5.086,13.196c8.188,18.458,23.145,27.922,23.777,28.315  c1.618,1.007,3.451,1.511,5.285,1.511c1.842,0,3.684-0.509,5.306-1.524c0.632-0.396,15.564-9.899,23.587-28.575  c2.18-5.075-0.167-10.956-5.242-13.135c-5.071-2.182-10.955,0.166-13.135,5.241c-2.908,6.772-7.178,11.847-10.549,15.123  c-3.423-3.273-7.76-8.335-10.746-15.065C242.396,243.563,236.487,241.285,231.439,243.524z"></path><path d="M279.064,379.604c-5.071-2.181-10.955,0.168-13.135,5.242c-2.908,6.771-7.178,11.848-10.549,15.123  c-3.423-3.273-7.76-8.335-10.746-15.064c-2.239-5.049-8.147-7.326-13.196-5.087s-7.326,8.147-5.086,13.196  c8.188,18.457,23.145,27.921,23.777,28.314c1.618,1.008,3.451,1.511,5.285,1.511c1.842,0,3.684-0.509,5.306-1.523  c0.632-0.396,15.564-9.899,23.587-28.576C286.486,387.664,284.14,381.783,279.064,379.604z"></path><path d="M362.057,243.312c-5.071-2.182-10.955,0.166-13.135,5.241c-2.911,6.777-7.186,11.857-10.559,15.132  c-3.408-3.261-7.738-8.316-10.736-15.075c-2.238-5.048-8.143-7.324-13.195-5.086c-5.049,2.239-7.326,8.147-5.086,13.196  c8.188,18.458,23.144,27.922,23.776,28.315c1.617,1.007,3.45,1.511,5.284,1.511c1.842,0,3.684-0.509,5.306-1.524  c0.632-0.396,15.564-9.899,23.587-28.575C369.479,251.372,367.132,245.492,362.057,243.312z"></path><path d="M440.222,292.275c-0.287-0.605-6.543-13.543-20.603-23.514c0.031-1.674,0.047-3.327,0.047-4.951  c0-14.424-1.123-28.273-3.342-41.27c11.904-12.536,15.641-26.564,15.809-27.216c0.956-3.698-0.278-7.618-3.182-10.101  c-0.512-0.438-11.637-9.81-28.719-13.125c-6.196-12.426-13.858-23.697-22.863-33.632c2.552-17.236-2.565-30.974-2.806-31.606  c-1.359-3.57-4.634-6.053-8.438-6.4c-0.675-0.063-15.19-1.275-31.06,5.919c-20.614-10.407-44.247-16.458-69.129-17.739V44.367  c0-5.523-4.477-10-10-10s-10,4.477-10,10V88.64c-24.856,1.28-48.47,7.322-69.07,17.71c-15.842-7.163-30.323-5.952-30.993-5.891  c-3.804,0.346-7.079,2.83-8.438,6.4c-0.241,0.631-5.333,14.306-2.825,31.483c-9.058,9.97-16.765,21.298-22.988,33.784  c-17.002,3.339-28.065,12.66-28.576,13.096c-2.903,2.483-4.138,6.403-3.182,10.102c0.168,0.65,3.882,14.601,15.709,27.111  c-2.235,13.039-3.366,26.928-3.366,41.375c0,1.656,0.016,3.34,0.048,5.039c-13.972,9.959-20.192,22.822-20.479,23.426  c-1.638,3.451-1.166,7.533,1.216,10.52c0.417,0.523,9.455,11.69,25.282,18.295c3.152,14.484,7.52,28.518,13.031,41.862  c-9.136,14.606-9.936,28.946-9.968,29.614c-0.185,3.816,1.821,7.402,5.168,9.244c0.587,0.323,13.229,7.158,30.385,7.166  c8.612,11.86,18.223,22.468,28.662,31.635c-1.011,17.349,5.298,30.426,5.596,31.029c1.682,3.422,5.163,5.588,8.974,5.588  c0.007,0,0.015,0,0.022,0c0.674-0.002,15.228-0.141,30.348-8.599c14.991,5.977,30.254,9.003,45.444,9.003  c15.209,0,30.494-3.037,45.511-9.035c15.141,8.489,29.73,8.629,30.405,8.631c0.008,0,0.015,0,0.022,0  c3.811,0,7.292-2.166,8.974-5.588c0.298-0.605,6.631-13.73,5.59-31.127c10.39-9.141,19.955-19.71,28.54-31.537  c0.034,0,0.067,0,0.102,0c17.167-0.001,29.824-6.843,30.411-7.166c3.347-1.842,5.353-5.429,5.168-9.244  c-0.032-0.671-0.839-15.092-10.047-29.74c5.484-13.299,9.829-27.261,12.971-41.68c15.912-6.596,25.002-17.826,25.421-18.352  C441.387,299.809,441.858,295.727,440.222,292.275z M408.939,301.301c-0.637-0.234-1.306-0.406-2.003-0.509  c-5.321-0.78-10.327,2.798-11.294,8.101c-3.346,18.354-8.77,35.971-16.123,52.361c-2.192,4.888-0.145,10.635,4.645,13.034  c0.01,0.005,0.021,0.011,0.031,0.016c2.716,4.53,4.309,8.996,5.235,12.48c-3.552,1.085-8.337,2.124-13.771,2.19  c-4.521-2.583-10.3-1.263-13.238,3.08c-9.724,14.367-20.938,26.802-33.333,36.959c-3.637,2.981-4.652,8.024-2.65,12.119  c0.44,5.981-0.396,11.299-1.366,15.172c-4.103-0.869-9.552-2.551-14.967-5.805c-2.844-3.143-7.472-4.219-11.505-2.412  c-14.133,6.334-28.486,9.545-42.663,9.545c-14.044,0-28.26-3.148-42.253-9.356c-1.297-0.575-2.679-0.859-4.055-0.859  c-1.98,0-3.949,0.588-5.637,1.739c-6.084,4.15-12.438,6.17-17.063,7.15c-1.094-4.367-2.016-10.553-1.141-17.453  c0.901-3.634-0.291-7.609-3.346-10.127c-11.985-9.882-22.864-21.895-32.333-35.703c-2.282-3.328-6.226-4.839-9.977-4.164  c-7,0.518-13.213-0.744-17.563-2.072c1.152-4.338,3.331-10.176,7.412-15.774c2.676-2.847,3.528-7.118,1.862-10.892  c-6.871-15.56-12.021-32.24-15.306-49.58c-0.978-5.162-5.768-8.665-10.955-8.074c-5.052-2.161-9.114-4.989-11.994-7.372  c2.734-3.565,7.017-8.138,13.016-11.761c3.568-1.647,5.963-5.321,5.803-9.471c-0.132-3.406-0.199-6.789-0.199-10.053  c0-15.186,1.345-29.639,3.998-42.959c0.778-3.908-0.844-7.739-3.875-9.966c-5.167-4.734-8.506-10.118-10.52-14.189  c4.119-2.23,10.221-4.774,17.574-5.529c3.53-0.362,6.604-2.568,8.076-5.797c6.399-14.026,14.845-26.446,25.101-36.915  c2.643-2.697,3.453-6.528,2.401-9.93c-1.525-6.918-1.137-13.313-0.42-17.841c4.664,0.565,11.112,2.016,17.508,5.624  c3.015,1.702,6.695,1.721,9.729,0.055c21.419-11.767,47.063-17.987,74.157-17.987c27.134,0,52.807,6.236,74.245,18.033  c3.312,1.823,7.223,1.573,10.217-0.354c6.257-3.43,12.521-4.824,17.066-5.375c0.626,3.936,0.998,9.289,0.07,15.193  c-2.353,3.854-1.848,8.916,1.426,12.23c10.593,10.725,19.265,23.508,25.776,37.994c2.006,4.462,6.901,6.763,11.539,5.604  c5.702,1.083,10.482,3.152,13.903,5.003c-1.666,3.37-4.235,7.626-7.987,11.669c-4.812,1.557-7.737,6.501-6.711,11.517  c2.776,13.57,4.184,28.347,4.184,43.919c0,3.797-0.094,7.773-0.277,11.818c-0.246,5.388,3.826,10,9.202,10.424  c0.278,0.022,0.555,0.023,0.829,0.031c3.93,3.014,6.905,6.313,8.987,9.027C416.028,297.08,412.839,299.352,408.939,301.301z"></path></svg></g></svg>