<svg height="185" viewBox="0 0 394 185" width="394" xmlns="http://www.w3.org/2000/svg"><g fill="#fff" fill-rule="evenodd"><path d="m65.7516796 112.2061-31.338-.012 16.394-107.458.018-.187c.087-2.222-1.335-3.718-3.713-3.904l-17.587-.083c-.806.027-1.971.155-2.776.97-.503.523-.848 1.268-1.053 2.277l-19.948 130.297-.018.187c-.051 1.296.466 2.084.909 2.517.597.585 1.422.902 2.513.945l53.34.194c2.146-.007 3.638-1.379 3.991-3.649l2.952-17.807.022-.209c.092-2.328-1.328-3.891-3.706-4.078"/><path d="m164.16088 2.334c-.697-.682-1.595-1.083-2.67-1.196l-.098-.01-17.972.235c-.963.036-2.725.478-3.704 3.012l-16.574 42.5-7.781-43.712-.003-.019c-.354-1.86-1.722-3.004-3.752-3.14l-.071-.004-17.7040004.328c-3.515.189-3.936 2.145-3.954 2.977l-.005.198 16.0780004 74.315-7.6480004 57.009-.015.188c-.033 1.606.872 3.342 3.5700004 3.398l17.846-.233c2.136-.048 3.601-1.375 3.921-3.57l7.843-57.815 33.814-71.555.007715-.357c.013285-.651-.171715-1.621-1.128715-2.549"/><path d="m153.60858 183.5342c-1.916 0-2.871-.919-2.871-2.756l2.871-24c.306-1.682 1.3-2.601 2.986-2.756 11.942-1.223 19.826-3.118 23.656-5.684 3.825-2.564 5.74-7.673 5.74-15.329 0-7.655-1.952-17.626-5.856-29.914-3.904-12.287-6.43-20.457-7.579-24.516-3.674-13.014-5.512-23.673-5.512-31.981 0-8.305 1.339-15.405 4.02-21.3 2.677-5.894 6.505-10.602 11.482-14.124 9.646-6.736 22.623-10.106 38.928-10.106 2.066 0 3.1.959 3.1 2.871l-3.1 23.771c-.309 1.914-1.263 2.947-2.871 3.099-14.852.996-22.276 5.398-22.276 13.205 0 7.198 3.156 21.341 9.474 42.431 6.313 21.091 9.472 36.191 9.472 45.301 0 34.525-20.554 51.788-61.664 51.788"/><path d="m297.91378 46.2725-.128-.021-47.57-.028-.095.002c-2.017.114-3.424 1.285-3.862 3.215l-.014.061-19.581 130.352-.019.19c-.046 1.314.5 2.107.968 2.54.61.566 1.45.872 2.551.909l53.235.147h.145l.143-.024c2.103-.362 3.455-1.675 3.702-3.557l2.879-17.818.021-.209c.083-2.328-1.343-3.886-3.723-4.062l-31.328-.046 4.809-31.955 25.486-.084.087-.003c2.027-.111 3.44-1.354 3.875-3.41l2.884-17.636.021-.211c.084-2.33-1.342-3.887-3.722-4.063l-.063-.004-24.772.011 4.342-28.662 26.414.193.098-.003c2.134-.109 3.557-1.448 3.904-3.673l2.792-17.821.019-.199c.08-2.233-1.229-3.777-3.498-4.131"/><path d="m362.98608 80.6416c-.048 4.841-1.157 9.682-3.29 14.38-3.621 7.901-9.771 12.226-18.763 13.176l4.876-39.619c1.516-.139 3.759-.195 6.697-.165 3.506.037 6.173.937 7.928 2.678 1.741 1.729 2.6 4.942 2.552 9.55m12.458 32.272c4.58-4.959 7.932-10.651 9.963-16.918 2.009-6.199 3.069-13.445 3.153-21.538.085-8.385-2.617-15.381-8.035-20.794-5.41-5.395-13.185-8.184-23.111-8.286-9.51-.095-17.243.073-22.99.506-9.149.692-9.654 1.15-10.186 1.635-.726.658-1.164 1.69-1.338 3.146l-16.303 130.046-.013196.192c-.007804.704.215196 3.029 3.397196 3.352l.104.011 18.211-.423c2.079-.072 3.496-1.415 3.794-3.614l5.787-47.136 18.732 48.932c.84 2.23 2.446 2.678 3.329 2.747l.086.007 19.499-.494h.075c2.903 0 3.958-1.736 3.975-3.37.007-.59-.126-1.177-.396-1.746l-23.291-55.779c6.107-2.386 11.334-5.904 15.558-10.476"/><path d="m387.66618 29.9717h-136.176c-.737 0-1.295-.679-1.166-1.42l4.596-26.627c.101-.578.592-1 1.167-1h136.176c.736 0 1.295.68 1.167 1.421l-4.597 26.626c-.101.579-.593 1-1.167 1"/><path d="m119.47088 183.5342h-118.4400004c-.641 0-1.126-.68-1.015-1.421l3.999-26.627c.086-.578.515-1 1.015-1h118.4400004c.64 0 1.126.68 1.014 1.421l-3.999 26.626c-.086.579-.514 1.001-1.014 1.001"/></g></svg>