<?xml version="1.0" encoding="UTF-8"?>
<svg width="320px" height="296px" viewBox="0 0 320 296" version="1.1" xmlns="http://www.w3.org/2000/svg" xmlns:xlink="http://www.w3.org/1999/xlink">
    <title>logo</title>
    <g id="Page-1" stroke="none" stroke-width="1" fill="none" fill-rule="evenodd">
        <g id="logo" fill="#ffffff" fill-rule="nonzero">
            <path d="M213.655,0.534 C210.396,1.201 209.337,1.751 201.166,7.022 C197.804,9.191 190.397,13.952 184.705,17.603 C179.013,21.253 169.312,27.502 163.146,31.489 C156.98,35.476 151.889,38.738 151.831,38.738 C151.773,38.738 146.676,42 140.504,45.987 C134.332,49.974 124.528,56.287 118.718,60.016 C112.907,63.745 102.493,70.437 95.576,74.888 C88.659,79.338 77.969,86.21 71.821,90.158 C65.672,94.106 55.611,100.568 49.463,104.518 C25.891,119.661 16.475,125.705 12.298,128.375 C3.359,134.087 0.885,137.802 0.91963515,145.463 C0.944,150.957 0.699,150.45 11.214,166.773 C14.803,172.345 21.17,182.249 25.362,188.782 C42.129,214.91 57.956,239.552 66.76,253.236 C70.159,258.52 76.678,268.659 81.247,275.769 C85.815,282.878 90.044,289.22 90.643,289.863 C96.346,295.976 105.73,296.74 113.528,291.726 C114.991,290.785 121.14,286.837 127.192,282.953 C152.909,266.447 161.525,260.913 172.258,254.008 C183.298,246.904 197.443,237.813 218.895,224.035 C224.659,220.332 234.485,214.015 240.729,209.996 C246.974,205.978 257.664,199.106 264.485,194.725 C278.537,185.701 292.218,176.904 304.467,169.016 C315.613,161.838 317.998,159.21 319.021,152.974 C320.079,146.52 319.554,145.294 308.171,127.646 C300.602,115.912 290.388,100.026 280.657,84.852 C276.899,78.991 270.49,69.009 266.415,62.668 C257.665,49.054 245.554,30.198 236.796,16.555 C228.773,4.057 227.069,2.35 221.144,0.879 C219.038,0.356 215.353,0.187 213.655,0.534 M213.83,28.479 C213.83,28.793 213.674,29.618 213.484,30.313 C213.295,31.008 212.277,36.057 211.222,41.533 C210.168,47.009 209.141,52.275 208.94,53.236 C208.739,54.197 208.019,57.891 207.34,61.445 C206.661,65 205.798,69.48 205.422,71.402 C205.046,73.323 204.573,75.838 204.37,76.991 C204.167,78.144 203.865,79.716 203.699,80.485 C203.532,81.253 203.227,82.825 203.021,83.978 C202.605,86.305 201.735,91.006 200.401,98.127 C199.119,104.973 198.913,106.088 198.463,108.607 C198.239,109.856 197.923,111.585 197.76,112.45 C197.461,114.036 197.107,115.996 196.236,120.891 C195.653,124.162 195.593,124.071 198.808,124.803 C203.438,125.857 204.369,126.068 205.882,126.405 C206.699,126.586 208.703,127.05 210.336,127.435 C215.635,128.685 222.038,130.171 225.707,131.002 C226.572,131.198 227.83,131.496 228.502,131.664 C229.175,131.832 230.432,132.131 231.297,132.329 C232.162,132.527 235.148,133.234 237.934,133.9 C240.721,134.567 244.415,135.442 246.144,135.844 C247.873,136.247 249.838,136.723 250.511,136.903 C251.183,137.082 255.978,138.259 261.166,139.519 C266.354,140.779 271.188,141.964 271.908,142.152 C272.629,142.34 273.847,142.651 274.616,142.843 C275.384,143.035 276.603,143.352 277.323,143.547 C279.142,144.039 292.335,147.383 293.83,147.731 C300.352,149.249 305.533,150.806 305.533,151.248 C305.533,151.844 305.17,151.827 296.624,150.842 C284.07,149.395 280.954,148.992 267.454,147.063 C265.136,146.732 261.241,146.059 254.179,144.768 C248.389,143.71 244.48,143.142 233.655,141.782 C225.824,140.799 213.619,139.581 205.795,139.002 C202.817,138.782 198.887,138.461 197.062,138.288 C193.118,137.916 193.147,137.896 192.557,141.271 C192.321,142.616 191.99,144.424 191.821,145.288 C191.652,146.153 191.25,148.266 190.928,149.984 C186.796,172.017 170.859,181.306 146.057,176.137 C144.616,175.837 142.729,175.447 141.865,175.271 C141,175.095 139.887,174.866 139.392,174.761 C138.504,174.574 138.461,174.662 136.476,180.803 C133.22,190.87 132.583,192.849 131.823,195.245 C131.427,196.493 130.397,199.716 129.534,202.406 C128.671,205.096 127.308,209.419 126.505,212.013 C125.701,214.607 124.908,217.122 124.741,217.603 C124.575,218.083 123.548,221.306 122.461,224.764 C121.373,228.223 118.14,238.127 115.277,246.773 C112.414,255.419 109.773,263.437 109.408,264.59 C109.043,265.742 108.039,268.886 107.177,271.576 C106.315,274.266 105.294,277.489 104.909,278.738 C101.8,288.82 101.63,289.27 101.2,288.575 C101.075,288.372 101.127,287.53 101.315,286.704 C101.504,285.877 102.223,281.9 102.913,277.865 C103.603,273.83 104.306,269.821 104.474,268.956 C104.643,268.092 104.962,266.362 105.183,265.114 C105.405,263.865 105.719,262.135 105.882,261.271 C106.045,260.406 106.348,258.755 106.555,257.603 C108.046,249.308 108.738,245.515 109.01,244.153 C109.182,243.288 109.502,241.559 109.722,240.31 C109.941,239.061 110.257,237.41 110.424,236.642 C110.59,235.873 110.907,234.223 111.127,232.974 C111.348,231.725 111.675,229.996 111.854,229.131 C112.033,228.266 112.724,224.729 113.39,221.271 C114.055,217.812 114.763,214.197 114.963,213.236 C115.163,212.275 116.027,207.952 116.884,203.629 C117.741,199.306 119.158,192.31 120.033,188.083 C120.908,183.856 121.771,179.611 121.952,178.651 C122.133,177.69 122.521,175.804 122.815,174.459 C123.638,170.691 123.74,170.847 119.856,169.922 C119.376,169.807 115.603,168.835 111.472,167.762 C107.341,166.688 103.371,165.673 102.651,165.506 C101.93,165.338 100.712,165.044 99.943,164.852 C99.175,164.659 97.956,164.359 97.236,164.185 C94.059,163.415 57.724,154.325 56.624,154.024 C55.952,153.841 52.808,153.066 49.638,152.303 C34.179,148.583 30.504,147.692 29.376,147.393 C28.703,147.215 27.681,146.953 27.105,146.81 L26.057,146.55 L27.097,146.412 C27.669,146.336 29.084,146.457 30.241,146.681 C31.398,146.905 33.052,147.219 33.917,147.379 C35.499,147.673 37.847,148.122 41.079,148.751 C42.039,148.938 44.633,149.422 46.843,149.827 C51.466,150.675 59.097,152.101 61.777,152.619 C65.784,153.394 69.379,154.067 72.869,154.696 C74.022,154.904 76.616,155.379 78.633,155.751 C80.651,156.124 83.716,156.682 85.445,156.993 C87.175,157.303 89.297,157.693 90.162,157.859 C91.026,158.025 92.755,158.342 94.004,158.563 C95.253,158.785 96.983,159.099 97.847,159.262 C100.098,159.687 102.8,160.176 109.55,161.384 C112.817,161.968 116.354,162.602 117.41,162.793 C118.467,162.984 120.275,163.303 121.428,163.502 C122.581,163.7 124.31,164 125.271,164.167 C126.921,164.454 129.307,164.818 134.528,165.579 C156.9,168.843 171.1,163.801 179.439,149.636 C182.998,143.589 184.961,138.666 187.579,129.218 C189.457,122.439 190.147,119.819 192.867,109.131 C194.237,103.751 196.698,94.083 198.337,87.646 C199.975,81.21 202.955,69.341 204.958,61.271 C206.961,53.201 208.768,45.969 208.973,45.201 C209.494,43.247 209.781,42.086 211.217,36.118 C211.91,33.236 212.624,30.605 212.804,30.271 C212.984,29.937 213.131,29.269 213.131,28.786 C213.131,28.303 213.288,27.908 213.48,27.908 C213.672,27.908 213.83,28.165 213.83,28.479" id="Shape"></path>
        </g>
    </g>
</svg>