<svg width="26.000000000000004" height="26.000000000000004" xmlns="http://www.w3.org/2000/svg">
 <title/>

 <desc/>
 <g>
  <title>background</title>
  <rect x="-1" y="-1" width="28" height="28" id="canvas_background" fill="none"/>
 </g>
 <g>
  <title>Layer 1</title>
  <g fill="none" fill-rule="evenodd" id="Page-1">
   <g fill="#fff" id="icon-1-mail-envelope">
    <path d="m2.50359,5c-1.10655,0 -2.00359,0.89451 -2.00359,1.99406l0,12.01188c0,1.10129 0.88976,1.99406 2.00359,1.99406l20.99282,0c1.10655,0 2.00359,-0.89451 2.00359,-1.99406l0,-12.01188c0,-1.10129 -0.88976,-1.99406 -2.00359,-1.99406l-20.99282,0l0,0zm-0.00052,1c-0.55398,0 -1.00307,0.44995 -1.00307,1.00685l0,11.9863c0,0.55607 0.43892,1.00685 1.00307,1.00685l20.99386,0c0.55398,0 1.00307,-0.44995 1.00307,-1.00685l0,-11.9863c0,-0.55607 -0.43892,-1.00685 -1.00307,-1.00685l-20.99386,0l0,0zm16.99693,2l0,3l3,0l0,-3l-3,0l0,0zm1,1l0,1l1,0l0,-1l-1,0l0,0zm-17,6l0,1l8,0l0,-1l-8,0l0,0zm0,-7l0,1l4,0l0,-1l-4,0l0,0zm0,9l0,1l8,0l0,-1l-8,0l0,0z" id="mail-envelope"/>
   </g>
  </g>
 </g>
</svg>