<svg width="375.467" height="375.467" xmlns="http://www.w3.org/2000/svg"><path fill="#fff" d="M47.483 164.623c-3.445 0-6.233 1.592-6.233 3.556v35.554c0 1.964 2.787 3.556 6.233 3.556s6.234-1.592 6.234-3.556V168.18c0-1.964-2.788-3.556-6.234-3.556zM66.183 153.957c-3.445 0-6.233 1.592-6.233 3.555V214.4c0 1.963 2.787 3.555 6.233 3.555s6.234-1.592 6.234-3.555v-56.888c0-1.963-2.788-3.555-6.234-3.555zM103.583 164.623c-3.445 0-6.233 1.592-6.233 3.556v35.554c0 1.964 2.787 3.556 6.233 3.556s6.234-1.592 6.234-3.556V168.18c0-1.964-2.788-3.556-6.234-3.556zM122.283 153.957c-3.445 0-6.233 1.592-6.233 3.555V214.4c0 1.963 2.787 3.555 6.233 3.555s6.234-1.592 6.234-3.555v-56.888c0-1.963-2.788-3.555-6.234-3.555zM140.983 150.401c-3.445 0-6.233 1.592-6.233 3.556v63.998c0 1.963 2.787 3.555 6.233 3.555s6.234-1.592 6.234-3.555v-63.998c0-1.964-2.788-3.556-6.234-3.556zM159.683 153.957c-3.445 0-6.233 1.592-6.233 3.555V214.4c0 1.963 2.787 3.555 6.233 3.555s6.234-1.592 6.234-3.555v-56.888c0-1.963-2.788-3.555-6.234-3.555zM84.883 129.068c-3.445 0-6.233 1.592-6.233 3.556v110.22c0 1.963 2.787 3.555 6.233 3.555s6.234-1.592 6.234-3.556v-110.22c0-1.963-2.788-3.555-6.234-3.555zM253.183 164.623c-3.445 0-6.233 1.592-6.233 3.556v35.554c0 1.964 2.788 3.556 6.233 3.556s6.234-1.592 6.234-3.556V168.18c0-1.964-2.788-3.556-6.234-3.556zM271.883 153.957c-3.445 0-6.233 1.592-6.233 3.555V214.4c0 1.963 2.788 3.555 6.233 3.555s6.234-1.592 6.234-3.555v-56.888c0-1.963-2.788-3.555-6.234-3.555zM309.283 164.623c-3.445 0-6.233 1.592-6.233 3.556v35.554c0 1.964 2.788 3.556 6.233 3.556s6.234-1.592 6.234-3.556V168.18c0-1.964-2.788-3.556-6.234-3.556zM327.983 153.957c-3.445 0-6.233 1.592-6.233 3.555V214.4c0 1.963 2.788 3.555 6.233 3.555s6.234-1.592 6.234-3.555v-56.888c0-1.963-2.788-3.555-6.234-3.555zM290.583 129.068c-3.445 0-6.233 1.592-6.233 3.556v110.22c0 1.963 2.788 3.555 6.233 3.555s6.234-1.592 6.234-3.556v-110.22c0-1.963-2.788-3.555-6.234-3.555zM178.383 164.623c-3.445 0-6.233 1.592-6.233 3.556v35.554c0 1.964 2.788 3.556 6.233 3.556s6.234-1.592 6.234-3.556V168.18c0-1.964-2.788-3.556-6.234-3.556zM197.083 153.957c-3.445 0-6.233 1.592-6.233 3.555V214.4c0 1.963 2.788 3.555 6.233 3.555s6.234-1.592 6.234-3.555v-56.888c0-1.963-2.788-3.555-6.234-3.555zM215.783 129.068c-3.445 0-6.233 1.592-6.233 3.556v110.22c0 1.963 2.788 3.555 6.233 3.555s6.234-1.592 6.234-3.556v-110.22c0-1.963-2.788-3.555-6.234-3.555zM234.483 118.402c-3.445 0-6.233 1.592-6.233 3.556v131.551c0 1.964 2.788 3.556 6.233 3.556s6.234-1.592 6.234-3.556V121.958c0-1.964-2.788-3.556-6.234-3.556z" /></svg>